HIERARCHY
ROOT newVegas:Hips
{
	OFFSET 0.000000 96.479958 0.000000
	CHANNELS 6 Xposition Yposition Zposition Xrotation Yrotation Zrotation
	JOINT newVegas:Pelvis
	{
		OFFSET 0.000000 0.000000 0.000000
		CHANNELS 3 Xrotation Yrotation Zrotation
		JOINT newVegas:LeftUpLeg
		{
			OFFSET 18.735201 -5.666702 -4.541200
			CHANNELS 3 Xrotation Yrotation Zrotation
			JOINT newVegas:LeftLeg
			{
				OFFSET -0.021200 -31.938179 0.493100
				CHANNELS 3 Xrotation Yrotation Zrotation
				JOINT newVegas:LeftFoot
				{
					OFFSET 0.021200 -31.938179 -4.336299
					CHANNELS 3 Xrotation Yrotation Zrotation
					JOINT newVegas:LeftToeBase
					{
						OFFSET 0.943001 -26.722000 15.023500
						CHANNELS 3 Xrotation Yrotation Zrotation
						End Site
						{
							OFFSET 0.000000 30.670183 0.000000
						}
					}
				}
				JOINT newVegas:Left_PantLeg
				{
					OFFSET 0.663870 -9.044666 -1.108900
					CHANNELS 3 Xrotation Yrotation Zrotation
					End Site
					{
						OFFSET 1.415995 20.635357 0.000000
					}
				}
			}
		}
		JOINT newVegas:RightUpLeg
		{
			OFFSET -18.735201 -5.666702 -4.541200
			CHANNELS 3 Xrotation Yrotation Zrotation
			JOINT newVegas:RightLeg
			{
				OFFSET 0.018946 -31.938133 0.493100
				CHANNELS 3 Xrotation Yrotation Zrotation
				JOINT newVegas:RightFoot
				{
					OFFSET -0.018946 -31.938126 -4.336299
					CHANNELS 3 Xrotation Yrotation Zrotation
					JOINT newVegas:RightToeBase
					{
						OFFSET -0.943001 -26.722004 15.023500
						CHANNELS 3 Xrotation Yrotation Zrotation
						End Site
						{
							OFFSET 0.000000 30.670187 0.000000
						}
					}
				}
				JOINT newVegas:Right_PantLeg
				{
					OFFSET -0.661674 -9.044716 -1.108900
					CHANNELS 3 Xrotation Yrotation Zrotation
					End Site
					{
						OFFSET -1.415958 20.635269 0.000000
					}
				}
			}
		}
	}
	JOINT newVegas:Spine
	{
		OFFSET 0.000000 10.199997 -0.299500
		CHANNELS 3 Xrotation Yrotation Zrotation
		JOINT newVegas:Spine1
		{
			OFFSET 0.000000 11.900002 -1.516600
			CHANNELS 3 Xrotation Yrotation Zrotation
			JOINT newVegas:Spine2
			{
				OFFSET 0.000000 13.600006 -2.842500
				CHANNELS 3 Xrotation Yrotation Zrotation
				JOINT newVegas:Neck
				{
					OFFSET 0.000000 9.624100 -2.890100
					CHANNELS 3 Xrotation Yrotation Zrotation
					JOINT newVegas:Head
					{
						OFFSET 0.000000 14.068802 -1.351900
						CHANNELS 3 Xrotation Yrotation Zrotation
						JOINT newVegas:Hair_Back
						{
							OFFSET 0.000000 3.231903 -17.524799
							CHANNELS 3 Xrotation Yrotation Zrotation
							End Site
							{
								OFFSET 0.000000 19.849884 0.000000
							}
						}
						JOINT newVegas:Hair_Front
						{
							OFFSET 0.000000 31.260406 4.573800
							CHANNELS 3 Xrotation Yrotation Zrotation
							JOINT newVegas:Hair_Front1
							{
								OFFSET 0.000000 2.284103 11.993300
								CHANNELS 3 Xrotation Yrotation Zrotation
								JOINT newVegas:Hair_Front2
								{
									OFFSET 0.000000 2.284103 11.993300
									CHANNELS 3 Xrotation Yrotation Zrotation
									End Site
									{
										OFFSET 0.000000 12.208862 0.000000
									}
								}
							}
						}
						JOINT newVegas:Jowel
						{
							OFFSET 0.000000 -7.458206 6.864100
							CHANNELS 3 Xrotation Yrotation Zrotation
							End Site
							{
								OFFSET 0.000000 19.849884 0.000000
							}
						}
					}
				}
				JOINT newVegas:LeftShoulder
				{
					OFFSET 15.263000 10.923401 -0.547700
					CHANNELS 3 Xrotation Yrotation Zrotation
					JOINT newVegas:LeftArm
					{
						OFFSET 25.438599 -2.830597 -13.032500
						CHANNELS 3 Xrotation Yrotation Zrotation
						JOINT newVegas:LeftForeArm
						{
							OFFSET 29.960503 0.000000 0.000000
							CHANNELS 3 Xrotation Yrotation Zrotation
							JOINT newVegas:LeftHand
							{
								OFFSET 27.849251 0.000000 0.000000
								CHANNELS 3 Xrotation Yrotation Zrotation
								JOINT newVegas:LeftHandThumb1
								{
									OFFSET 4.487587 -3.305161 6.305391
									CHANNELS 3 Xrotation Yrotation Zrotation
									JOINT newVegas:LeftHandThumb2
									{
										OFFSET 5.480453 -3.164139 3.164143
										CHANNELS 3 Xrotation Yrotation Zrotation
										JOINT newVegas:LeftHandThumb3
										{
											OFFSET 5.159721 -2.978973 2.978967
											CHANNELS 3 Xrotation Yrotation Zrotation
											End Site
											{
												OFFSET 2.494507 5.926697 1.738678
											}
										}
									}
								}
								JOINT newVegas:LeftHandIndex1
								{
									OFFSET 18.578728 -0.527832 5.208049
									CHANNELS 3 Xrotation Yrotation Zrotation
									JOINT newVegas:LeftHandIndex2
									{
										OFFSET 3.192009 0.000000 0.000000
										CHANNELS 3 Xrotation Yrotation Zrotation
										JOINT newVegas:LeftHandIndex3
										{
											OFFSET 3.835129 0.000000 0.000000
											CHANNELS 3 Xrotation Yrotation Zrotation
											End Site
											{
												OFFSET -0.034599 3.816971 0.371180
											}
										}
									}
								}
								JOINT newVegas:LeftHandMiddle1
								{
									OFFSET 18.476105 0.000000 0.000000
									CHANNELS 3 Xrotation Yrotation Zrotation
									JOINT newVegas:LeftHandMiddle2
									{
										OFFSET 3.324875 0.000000 0.000000
										CHANNELS 3 Xrotation Yrotation Zrotation
										JOINT newVegas:LeftHandMiddle3
										{
											OFFSET 4.596550 0.000000 0.000000
											CHANNELS 3 Xrotation Yrotation Zrotation
											End Site
											{
												OFFSET 0.057701 4.578827 0.399218
											}
										}
									}
								}
								JOINT newVegas:LeftHandRing1
								{
									OFFSET 17.732719 0.121887 -4.201567
									CHANNELS 3 Xrotation Yrotation Zrotation
									JOINT newVegas:LeftHandRing2
									{
										OFFSET 2.733170 0.000000 0.000000
										CHANNELS 3 Xrotation Yrotation Zrotation
										JOINT newVegas:LeftHandRing3
										{
											OFFSET 3.178268 0.000000 0.000000
											CHANNELS 3 Xrotation Yrotation Zrotation
											End Site
											{
												OFFSET 0.119102 3.170624 0.185394
											}
										}
									}
								}
								JOINT newVegas:LeftHandPinky1
								{
									OFFSET 15.989624 -0.606689 -7.535461
									CHANNELS 3 Xrotation Yrotation Zrotation
									JOINT newVegas:LeftHandPinky2
									{
										OFFSET 2.538986 0.000000 0.000000
										CHANNELS 3 Xrotation Yrotation Zrotation
										JOINT newVegas:LeftHandPinky3
										{
											OFFSET 2.593102 0.000000 0.000000
											CHANNELS 3 Xrotation Yrotation Zrotation
											End Site
											{
												OFFSET -0.150902 2.584198 0.152708
											}
										}
									}
								}
							}
							JOINT newVegas:Left_Sleeve
							{
								OFFSET 0.267448 -0.649796 0.577675
								CHANNELS 3 Xrotation Yrotation Zrotation
								End Site
								{
									OFFSET 0.000000 15.991241 0.000000
								}
							}
							JOINT newVegas:Left_CapeC
							{
								OFFSET 15.715958 -8.608795 -6.935905
								CHANNELS 3 Xrotation Yrotation Zrotation
								JOINT newVegas:Left_CapeC1
								{
									OFFSET 0.000000 -8.688499 0.000000
									CHANNELS 3 Xrotation Yrotation Zrotation
									End Site
									{
										OFFSET 0.000000 8.688499 0.000000
									}
								}
							}
						}
						JOINT newVegas:Left_CapeB
						{
							OFFSET 26.118385 -8.608795 -7.079235
							CHANNELS 3 Xrotation Yrotation Zrotation
							JOINT newVegas:Left_CapeB1
							{
								OFFSET 0.000000 -8.688499 0.000000
								CHANNELS 3 Xrotation Yrotation Zrotation
								End Site
								{
									OFFSET 0.000000 8.688499 0.000000
								}
							}
						}
						JOINT newVegas:Left_CapeA
						{
							OFFSET 5.115639 -8.608795 -10.395809
							CHANNELS 3 Xrotation Yrotation Zrotation
							JOINT newVegas:Left_CapeA1
							{
								OFFSET 0.000000 -8.688499 0.000000
								CHANNELS 3 Xrotation Yrotation Zrotation
								End Site
								{
									OFFSET 0.000000 8.688499 0.000000
								}
							}
						}
					}
				}
				JOINT newVegas:RightShoulder
				{
					OFFSET -15.263000 10.923401 -0.547700
					CHANNELS 3 Xrotation Yrotation Zrotation
					JOINT newVegas:RightArm
					{
						OFFSET -25.438599 -2.830597 -13.032500
						CHANNELS 3 Xrotation Yrotation Zrotation
						JOINT newVegas:RightForeArm
						{
							OFFSET -29.960503 0.000000 0.000000
							CHANNELS 3 Xrotation Yrotation Zrotation
							JOINT newVegas:RightHand
							{
								OFFSET -27.849251 0.000000 0.000000
								CHANNELS 3 Xrotation Yrotation Zrotation
								JOINT newVegas:RightHandThumb1
								{
									OFFSET -4.487587 -3.305161 6.305391
									CHANNELS 3 Xrotation Yrotation Zrotation
									JOINT newVegas:RightHandThumb2
									{
										OFFSET -5.480453 -3.164139 3.164143
										CHANNELS 3 Xrotation Yrotation Zrotation
										JOINT newVegas:RightHandThumb3
										{
											OFFSET -5.159721 -2.978973 2.978967
											CHANNELS 3 Xrotation Yrotation Zrotation
											End Site
											{
												OFFSET -2.494507 5.926697 1.738678
											}
										}
									}
								}
								JOINT newVegas:RightHandIndex1
								{
									OFFSET -18.578728 -0.527832 5.208049
									CHANNELS 3 Xrotation Yrotation Zrotation
									JOINT newVegas:RightHandIndex2
									{
										OFFSET -3.192009 0.000000 0.000000
										CHANNELS 3 Xrotation Yrotation Zrotation
										JOINT newVegas:RightHandIndex3
										{
											OFFSET -3.835129 0.000000 0.000000
											CHANNELS 3 Xrotation Yrotation Zrotation
											End Site
											{
												OFFSET 0.034599 3.816971 0.371180
											}
										}
									}
								}
								JOINT newVegas:RightHandMiddle1
								{
									OFFSET -18.476105 0.000000 0.000000
									CHANNELS 3 Xrotation Yrotation Zrotation
									JOINT newVegas:RightHandMiddle2
									{
										OFFSET -3.324875 0.000000 0.000000
										CHANNELS 3 Xrotation Yrotation Zrotation
										JOINT newVegas:RightHandMiddle3
										{
											OFFSET -4.596550 0.000000 0.000000
											CHANNELS 3 Xrotation Yrotation Zrotation
											End Site
											{
												OFFSET -0.057701 4.578827 0.399218
											}
										}
									}
								}
								JOINT newVegas:RightHandRing1
								{
									OFFSET -17.732719 0.121887 -4.201567
									CHANNELS 3 Xrotation Yrotation Zrotation
									JOINT newVegas:RightHandRing2
									{
										OFFSET -2.733170 0.000000 0.000000
										CHANNELS 3 Xrotation Yrotation Zrotation
										JOINT newVegas:RightHandRing3
										{
											OFFSET -3.178268 0.000000 0.000000
											CHANNELS 3 Xrotation Yrotation Zrotation
											End Site
											{
												OFFSET -0.119102 3.170624 0.185394
											}
										}
									}
								}
								JOINT newVegas:RightHandPinky1
								{
									OFFSET -15.989624 -0.606689 -7.535461
									CHANNELS 3 Xrotation Yrotation Zrotation
									JOINT newVegas:RightHandPinky2
									{
										OFFSET -2.538986 0.000000 0.000000
										CHANNELS 3 Xrotation Yrotation Zrotation
										JOINT newVegas:RightHandPinky3
										{
											OFFSET -2.593102 0.000000 0.000000
											CHANNELS 3 Xrotation Yrotation Zrotation
											End Site
											{
												OFFSET 0.150902 2.584198 0.152708
											}
										}
									}
								}
							}
							JOINT newVegas:Right_CapeC
							{
								OFFSET -15.715958 -8.608795 -6.935905
								CHANNELS 3 Xrotation Yrotation Zrotation
								JOINT newVegas:Right_CapeC1
								{
									OFFSET 0.000000 -8.688499 0.000000
									CHANNELS 3 Xrotation Yrotation Zrotation
									End Site
									{
										OFFSET 0.000000 8.688499 0.000000
									}
								}
							}
							JOINT newVegas:Right_Sleeve
							{
								OFFSET -0.267448 -0.649994 0.577675
								CHANNELS 3 Xrotation Yrotation Zrotation
								End Site
								{
									OFFSET 0.000000 15.991302 0.000000
								}
							}
						}
						JOINT newVegas:Right_CapeA
						{
							OFFSET -5.115540 -8.608795 -10.395824
							CHANNELS 3 Xrotation Yrotation Zrotation
							JOINT newVegas:Right_CapeA1
							{
								OFFSET 0.000000 -8.688499 0.000000
								CHANNELS 3 Xrotation Yrotation Zrotation
								End Site
								{
									OFFSET 0.000000 8.688499 0.000000
								}
							}
						}
						JOINT newVegas:Right_CapeB
						{
							OFFSET -26.118187 -8.608795 -7.079266
							CHANNELS 3 Xrotation Yrotation Zrotation
							JOINT newVegas:Right_CapeB1
							{
								OFFSET 0.000000 -8.688499 0.000000
								CHANNELS 3 Xrotation Yrotation Zrotation
								End Site
								{
									OFFSET 0.000000 8.688499 0.000000
								}
							}
						}
					}
				}
				JOINT newVegas:Left_Collar
				{
					OFFSET 18.625099 8.655502 8.828100
					CHANNELS 3 Xrotation Yrotation Zrotation
					JOINT newVegas:Left_Collar1
					{
						OFFSET 14.783401 10.540405 -1.259500
						CHANNELS 3 Xrotation Yrotation Zrotation
						End Site
						{
							OFFSET 0.000000 18.199875 0.000000
						}
					}
				}
				JOINT newVegas:Collar_Back
				{
					OFFSET 0.000000 15.630707 -20.132601
					CHANNELS 3 Xrotation Yrotation Zrotation
					End Site
					{
						OFFSET 0.000000 22.523010 0.000000
					}
				}
				JOINT newVegas:Left_Peck
				{
					OFFSET 17.239599 -5.132599 25.482599
					CHANNELS 3 Xrotation Yrotation Zrotation
					End Site
					{
						OFFSET 0.000000 22.523010 0.000000
					}
				}
				JOINT newVegas:Right_Peck
				{
					OFFSET -17.239599 -5.132202 25.482599
					CHANNELS 3 Xrotation Yrotation Zrotation
					End Site
					{
						OFFSET 0.000000 22.523010 0.000000
					}
				}
				JOINT newVegas:Right_Collar
				{
					OFFSET -18.625099 8.655792 8.828100
					CHANNELS 3 Xrotation Yrotation Zrotation
					JOINT newVegas:Right_Collar1
					{
						OFFSET -14.783401 10.539993 -1.259500
						CHANNELS 3 Xrotation Yrotation Zrotation
						End Site
						{
							OFFSET 0.000000 18.199631 0.000000
						}
					}
				}
			}
		}
		JOINT newVegas:Belly
		{
			OFFSET 0.000000 -6.540398 9.014299
			CHANNELS 3 Xrotation Yrotation Zrotation
			End Site
			{
				OFFSET 0.000000 11.566666 0.000000
			}
		}
	}
	JOINT newVegas:ElvisFacialAnim_Joint
	{
		OFFSET 1.000000 -95.330101 -8.825800
		CHANNELS 3 Xrotation Yrotation Zrotation
		End Site
		{
			OFFSET 0.000000 35.315800 0.000000
		}
	}
}
MOTION
Frames: 4
Frame Time: 0.033333
-0.753942 77.531487 3.923059 10.678464 -15.217159 6.546008 -0.000000 -0.000001 0.000001 -57.842522 -0.088211 23.379399 56.458695 2.700797 6.026319 -3.344904 2.587634 -25.347595 0.000000 -0.000000 0.000000 0.000001 -0.000001 -0.000002 -39.482359 6.869624 -38.350156 56.073408 -5.049450 -3.669064 -12.104360 -7.864883 38.018083 0.000000 -0.000000 0.000000 -0.000001 -0.000001 -0.000000 6.264833 2.329337 -2.475467 4.199285 0.464369 -0.320523 4.200192 0.469596 -0.298631 0.443739 0.264544 -0.314458 0.443743 0.264543 -0.314458 0.000001 0.000000 -0.000000 0.443671 0.264532 -0.314455 0.443909 0.264549 -0.314460 -0.000002 -0.000000 -0.000000 0.000001 0.000000 0.000000 2.266012 -14.609749 -12.353160 -22.590332 -11.602598 -40.612790 0.000061 -120.055984 0.000047 -42.966118 1.988871 32.521901 9.245171 -0.037207 -0.446289 3.939038 7.948715 0.746815 0.000003 0.000002 -0.000004 -1.622622 0.012092 -36.265019 1.299649 4.030960 -35.727968 0.000000 0.000000 -0.000000 1.891988 4.745086 -43.458390 1.298843 4.029785 -35.716169 -0.000001 0.000001 -0.000001 2.648171 5.430102 -51.969827 1.303398 4.036137 -35.781138 -0.000001 0.000001 0.000002 8.635554 8.977788 -59.643063 1.324023 -0.020572 -36.283259 0.000001 -0.000003 -0.000001 0.000002 0.000001 -0.000004 0.000002 0.000001 -0.000004 0.000001 0.000001 -0.000004 -0.000002 0.000000 0.000005 -0.000001 0.000000 0.000004 -0.000002 0.000000 0.000005 -0.000002 0.000001 0.000004 1.415058 15.120053 12.396486 20.580074 23.937834 14.881263 -0.000041 75.988163 0.000056 -10.881343 19.927227 -5.934714 10.101291 -1.357146 5.316463 4.637192 -8.634132 -0.225400 0.000003 -0.000002 0.000003 1.674977 -4.530888 40.560136 1.674998 -4.530856 40.560129 0.000001 0.000005 -0.000000 1.674903 -4.530797 40.559156 1.675212 -4.531083 40.562786 -0.000000 -0.000004 0.000001 1.674898 -4.530784 40.559142 1.675210 -4.531090 40.562786 0.000001 0.000004 -0.000001 1.674973 -4.530890 40.560129 1.674991 -4.530841 40.560139 0.000001 0.000002 0.000000 -0.000002 0.000003 -0.000000 -0.000000 0.000001 -0.000001 -0.000002 0.000003 -0.000000 -0.000001 -0.000002 0.000002 -0.000001 -0.000001 0.000001 -0.000001 -0.000002 0.000002 -0.000001 -0.000001 -0.000000 0.000001 -0.000001 0.000001 0.000001 -0.000001 0.000001 0.000001 -0.000001 0.000001 0.000001 -0.000001 0.000001 0.000001 -0.000001 0.000001 0.000001 -0.000001 0.000001 0.000001 -0.000001 0.000001 -0.000000 0.000000 -0.000000 -0.000000 -0.000001 0.000001 
-0.795492 77.567017 3.864206 10.679839 -15.236813 6.535687 -0.000000 0.000001 -0.000000 -57.801644 0.002990 23.437926 56.291564 2.823217 6.093664 -3.190521 2.560240 -25.389924 -0.000000 0.000000 -0.000000 0.000001 -0.000000 -0.000001 -39.424897 7.022946 -38.235423 56.076680 -5.016971 -3.549098 -12.090751 -8.005076 37.917126 0.000000 -0.000000 0.000000 0.000000 0.000002 -0.000000 6.306509 2.418417 -2.395867 4.189112 0.475825 -0.316044 4.190139 0.480771 -0.293851 0.392609 0.259903 -0.356332 0.392609 0.259900 -0.356330 -0.000001 -0.000000 -0.000000 0.392612 0.259913 -0.356334 0.392692 0.259891 -0.356329 -0.000000 -0.000000 0.000000 -0.000001 -0.000000 0.000000 2.259515 -14.671291 -12.356226 -22.750964 -11.557238 -40.733291 0.000024 -120.045287 0.000032 -42.954530 2.015911 32.405532 9.245168 -0.037206 -0.446289 3.939038 7.948718 0.746817 0.000001 0.000001 -0.000008 -1.622068 0.011736 -36.257533 1.299224 4.030375 -35.722029 -0.000001 -0.000001 0.000000 1.891736 4.744786 -43.455084 1.298645 4.029578 -35.713895 0.000002 -0.000001 0.000000 2.648151 5.430073 -51.969475 1.303401 4.036139 -35.781257 -0.000001 0.000001 0.000002 8.635929 8.977450 -59.647741 1.324377 -0.020129 -36.287849 0.000001 -0.000003 0.000000 0.000001 0.000002 0.000002 0.000001 0.000002 0.000002 0.000000 0.000002 0.000002 0.000001 0.000002 -0.000002 0.000002 0.000002 -0.000003 0.000001 0.000002 -0.000002 0.000001 0.000003 -0.000002 1.385720 15.148390 12.398399 20.426608 23.835041 14.893449 0.000016 76.002179 -0.000015 -10.594710 19.862803 -6.111396 10.101296 -1.357145 5.316455 4.637190 -8.634133 -0.225402 0.000003 0.000004 0.000002 1.674996 -4.530864 40.560132 1.674984 -4.530859 40.560146 0.000003 -0.000001 -0.000003 1.674918 -4.530771 40.559156 1.675183 -4.531109 40.562813 -0.000002 -0.000001 0.000000 1.674908 -4.530762 40.559152 1.675191 -4.531124 40.562817 -0.000000 -0.000003 0.000002 1.675011 -4.530864 40.560122 1.674968 -4.530851 40.560156 -0.000001 0.000003 0.000001 -0.000003 0.000002 0.000003 -0.000001 0.000000 0.000005 -0.000003 0.000002 0.000002 0.000000 0.000003 -0.000000 0.000000 0.000003 0.000002 0.000000 0.000003 -0.000000 0.000000 0.000003 -0.000000 -0.000001 0.000001 0.000000 -0.000001 0.000001 0.000000 -0.000001 0.000001 0.000000 -0.000001 0.000001 0.000000 -0.000001 0.000001 0.000000 -0.000001 0.000001 0.000000 -0.000001 0.000001 0.000000 0.000001 -0.000001 0.000000 -0.000000 0.000001 -0.000000 
-0.812282 77.632469 3.805597 10.668836 -15.355766 6.583866 0.000001 -0.000001 0.000000 -57.689485 0.256563 23.535582 56.110571 2.961824 6.114244 -3.082817 2.538895 -25.355795 -0.000000 -0.000000 -0.000000 0.000001 -0.000001 -0.000001 -39.357039 7.270216 -38.177558 55.968698 -4.979574 -3.383890 -11.985356 -8.054253 37.797703 0.000000 -0.000002 0.000000 0.000002 -0.000001 -0.000003 6.313886 2.599585 -2.361704 4.184609 0.504848 -0.294200 4.185522 0.510076 -0.270964 0.364672 0.246329 -0.406617 0.364697 0.246325 -0.406617 0.000003 -0.000000 0.000000 0.364763 0.246331 -0.406619 0.364616 0.246324 -0.406616 0.000001 -0.000000 0.000000 0.000003 -0.000000 0.000000 2.224619 -14.786588 -12.362435 -23.075782 -11.538007 -40.872791 0.000052 -119.910132 0.000051 -43.082088 2.213576 32.269359 9.245167 -0.037207 -0.446287 3.939036 7.948718 0.746815 0.000000 0.000000 -0.000004 -1.622123 0.008591 -36.237118 1.298396 4.029206 -35.710138 0.000001 0.000001 -0.000000 1.890944 4.743949 -43.445559 1.298403 4.029219 -35.710299 0.000001 -0.000001 0.000001 2.648756 5.430553 -51.975875 1.304036 4.037053 -35.790468 -0.000000 -0.000002 0.000000 8.638856 8.976629 -59.668382 1.325782 -0.018153 -36.308111 -0.000001 -0.000002 -0.000001 0.000001 -0.000001 -0.000003 0.000001 -0.000001 -0.000003 0.000001 -0.000000 -0.000003 -0.000001 -0.000001 -0.000000 0.000000 -0.000001 -0.000001 -0.000001 -0.000001 -0.000000 -0.000001 0.000000 -0.000001 1.351003 15.176784 12.400385 20.314431 23.791468 14.739273 0.000038 75.982166 -0.000033 -10.673071 19.771005 -6.197226 10.101291 -1.357147 5.316456 4.637191 -8.634129 -0.225399 0.000000 0.000000 0.000001 1.674996 -4.530872 40.560129 1.674990 -4.530862 40.560115 0.000000 -0.000001 0.000004 1.674919 -4.530757 40.559142 1.675170 -4.531101 40.562796 0.000002 -0.000004 0.000003 1.674921 -4.530752 40.559135 1.675178 -4.531105 40.562793 -0.000000 0.000002 -0.000000 1.674995 -4.530876 40.560129 1.674986 -4.530855 40.560132 -0.000002 0.000002 -0.000000 -0.000002 -0.000000 -0.000000 -0.000001 -0.000002 0.000000 -0.000002 -0.000000 -0.000001 0.000002 0.000000 0.000002 0.000002 0.000001 0.000002 0.000002 0.000000 0.000002 0.000002 0.000001 0.000000 0.000001 -0.000001 0.000000 0.000001 -0.000001 0.000000 0.000001 -0.000001 0.000000 0.000001 -0.000001 0.000000 0.000001 -0.000001 0.000000 0.000001 -0.000001 0.000000 0.000001 -0.000001 0.000000 -0.000001 0.000000 -0.000000 0.000001 -0.000001 0.000000 
-0.812262 77.738945 3.745877 10.552247 -15.751149 6.709976 0.000001 0.000001 0.000000 -57.306933 0.725716 23.765066 55.948340 3.182936 6.051641 -3.100194 2.545449 -25.288108 0.000000 -0.000001 -0.000000 -0.000000 -0.000001 0.000002 -39.313312 7.684769 -38.101326 55.746460 -4.953331 -3.280558 -11.741385 -7.905697 37.671348 -0.000000 -0.000000 -0.000000 -0.000001 -0.000001 -0.000000 6.312243 2.856502 -2.381355 4.200558 0.548935 -0.252078 4.201003 0.554929 -0.226993 0.398023 0.238103 -0.452553 0.398042 0.238101 -0.452551 0.000002 0.000000 -0.000001 0.397899 0.238106 -0.452552 0.398188 0.238099 -0.452553 0.000000 0.000000 -0.000000 0.000002 0.000000 -0.000000 2.158936 -14.976365 -12.373000 -23.731118 -11.501518 -40.818699 -0.000001 -119.589359 -0.000003 -43.501584 2.813945 32.523530 9.245169 -0.037208 -0.446291 3.939038 7.948716 0.746812 0.000000 -0.000001 -0.000003 -1.622697 0.000227 -36.186458 1.297680 4.028249 -35.700125 0.000000 -0.000000 -0.000000 1.889855 4.742829 -43.432531 1.299471 4.030679 -35.725260 0.000000 -0.000002 0.000000 2.651918 5.433015 -52.009466 1.307358 4.041595 -35.837248 -0.000001 -0.000001 0.000003 8.649420 8.974414 -59.737558 1.330675 -0.011554 -36.376017 0.000000 -0.000003 0.000001 0.000002 0.000000 -0.000002 0.000002 0.000000 -0.000002 0.000002 0.000001 -0.000002 0.000001 -0.000001 0.000003 0.000002 0.000000 0.000000 0.000001 -0.000001 0.000003 0.000001 -0.000000 0.000001 1.314028 15.215655 12.402960 20.291840 24.036008 14.120829 -0.000033 75.840126 0.000025 -11.365473 19.563885 -6.103949 10.101292 -1.357144 5.316448 4.637193 -8.634139 -0.225401 0.000001 -0.000003 0.000001 1.674969 -4.530865 40.560139 1.674981 -4.530876 40.560139 -0.000001 0.000001 0.000002 1.674899 -4.530777 40.559152 1.675193 -4.531097 40.562796 -0.000000 0.000000 0.000001 1.674898 -4.530765 40.559156 1.675199 -4.531112 40.562796 0.000000 0.000004 -0.000003 1.674974 -4.530884 40.560132 1.674984 -4.530855 40.560146 -0.000000 0.000003 0.000001 0.000001 -0.000002 0.000001 0.000002 -0.000004 0.000000 0.000001 -0.000003 0.000001 0.000000 -0.000005 -0.000004 0.000000 -0.000004 -0.000004 0.000000 -0.000005 -0.000004 0.000000 -0.000004 -0.000006 -0.000001 -0.000000 -0.000000 -0.000001 -0.000000 -0.000000 -0.000001 -0.000000 -0.000000 -0.000001 -0.000000 -0.000000 -0.000001 -0.000000 -0.000000 -0.000001 -0.000000 -0.000000 -0.000001 -0.000000 -0.000000 -0.000000 -0.000000 -0.000000 0.000001 0.000001 0.000000 
